<svg width="50" height="50" viewBox="0 0 50 50" fill="none" xmlns="http://www.w3.org/2000/svg">
<path d="M30.625 13.125C30.2433 13.5144 30.0295 14.038 30.0295 14.5833C30.0295 15.1286 30.2433 15.6522 30.625 16.0417L33.9583 19.375C34.3478 19.7567 34.8714 19.9705 35.4167 19.9705C35.962 19.9705 36.4856 19.7567 36.875 19.375L44.7292 11.5208C45.7767 13.8358 46.0939 16.4151 45.6385 18.9149C45.183 21.4147 43.9765 23.7163 42.1798 25.5131C40.383 27.3098 38.0814 28.5163 35.5816 28.9718C33.0817 29.4273 30.5025 29.1101 28.1875 28.0625L13.7917 42.4583C12.9629 43.2871 11.8388 43.7527 10.6667 43.7527C9.49457 43.7527 8.37047 43.2871 7.54167 42.4583C6.71287 41.6295 6.24725 40.5054 6.24725 39.3333C6.24725 38.1612 6.71287 37.0371 7.54167 36.2083L21.9375 21.8125C20.8899 19.4975 20.5727 16.9183 21.0282 14.4184C21.4837 11.9186 22.6902 9.61698 24.4869 7.82025C26.2837 6.02351 28.5853 4.81701 31.0851 4.36154C33.5849 3.90607 36.1642 4.22325 38.4792 5.27083L30.6458 13.1042L30.625 13.125Z" stroke="#A16207" stroke-width="6" stroke-linecap="round" stroke-linejoin="round"/>
</svg>
