<svg width="50" height="50" viewBox="0 0 50 50" fill="none" xmlns="http://www.w3.org/2000/svg">
<path d="M6.25 12.5H10.4167H43.75" stroke="white" stroke-width="4" stroke-linecap="round" stroke-linejoin="round"/>
<path d="M16.6667 12.5V8.33332C16.6667 7.22825 17.1057 6.16845 17.8871 5.38704C18.6685 4.60564 19.7283 4.16666 20.8334 4.16666H29.1667C30.2718 4.16666 31.3316 4.60564 32.113 5.38704C32.8944 6.16845 33.3334 7.22825 33.3334 8.33332V12.5M39.5834 12.5V41.6667C39.5834 42.7717 39.1444 43.8315 38.363 44.6129C37.5816 45.3943 36.5218 45.8333 35.4167 45.8333H14.5834C13.4783 45.8333 12.4185 45.3943 11.6371 44.6129C10.8557 43.8315 10.4167 42.7717 10.4167 41.6667V12.5H39.5834Z" stroke="white" stroke-width="4" stroke-linecap="round" stroke-linejoin="round"/>
<path d="M20.8333 22.9167V35.4167" stroke="white" stroke-width="4" stroke-linecap="round" stroke-linejoin="round"/>
<path d="M29.1667 22.9167V35.4167" stroke="white" stroke-width="4" stroke-linecap="round" stroke-linejoin="round"/>
</svg>
