<svg width="50" height="50" viewBox="0 0 50 50" fill="none" xmlns="http://www.w3.org/2000/svg">
<path d="M6.25 12.5H10.4167H43.75" stroke="#003E66" stroke-width="4" stroke-linecap="round" stroke-linejoin="round"/>
<path d="M16.6667 12.5V8.33334C16.6667 7.22827 17.1056 6.16846 17.887 5.38706C18.6684 4.60566 19.7283 4.16667 20.8333 4.16667H29.1667C30.2717 4.16667 31.3315 4.60566 32.1129 5.38706C32.8943 6.16846 33.3333 7.22827 33.3333 8.33334V12.5M39.5833 12.5V41.6667C39.5833 42.7717 39.1443 43.8315 38.3629 44.6129C37.5815 45.3943 36.5217 45.8333 35.4167 45.8333H14.5833C13.4783 45.8333 12.4184 45.3943 11.637 44.6129C10.8556 43.8315 10.4167 42.7717 10.4167 41.6667V12.5H39.5833Z" stroke="#003E66" stroke-width="4" stroke-linecap="round" stroke-linejoin="round"/>
<path d="M20.8333 22.9167V35.4167" stroke="#003E66" stroke-width="4" stroke-linecap="round" stroke-linejoin="round"/>
<path d="M29.1667 22.9167V35.4167" stroke="#003E66" stroke-width="4" stroke-linecap="round" stroke-linejoin="round"/>
</svg>
