<?xml version="1.0" standalone="no"?>
<!DOCTYPE svg PUBLIC "-//W3C//DTD SVG 20010904//EN"
 "http://www.w3.org/TR/2001/REC-SVG-20010904/DTD/svg10.dtd">
<svg version="1.0" xmlns="http://www.w3.org/2000/svg"
 width="512.000000pt" height="512.000000pt" viewBox="0 0 512.000000 512.000000"
 preserveAspectRatio="xMidYMid meet">
<metadata>
Created by potrace 1.14, written by Peter Selinger 2001-2017
</metadata>
<g transform="translate(0.000000,512.000000) scale(0.100000,-0.100000)"
fill="#000000" stroke="none">
<path d="M2150 4974 c-442 -43 -727 -113 -995 -244 -441 -214 -663 -577 -755
-1238 -40 -288 -47 -429 -39 -747 40 -1540 281 -2155 916 -2340 280 -82 705
-73 959 19 225 82 338 241 374 521 11 88 0 128 -45 163 -41 32 -114 30 -154
-4 -33 -27 -45 -62 -56 -159 -15 -133 -76 -229 -172 -271 -183 -81 -577 -97
-822 -32 -432 113 -632 520 -715 1458 -43 478 -46 1028 -7 1310 39 280 100
508 177 662 182 364 543 555 1204 637 710 89 1229 8 1581 -245 98 -71 236
-213 307 -317 213 -310 335 -777 349 -1332 4 -178 2 -238 -11 -315 -48 -274
-176 -356 -472 -305 -258 46 -529 150 -1424 549 -118 53 -218 95 -221 94 -13
-5 731 -1005 966 -1298 416 -520 810 -928 1150 -1190 102 -79 294 -206 340
-226 91 -38 191 50 165 145 -12 46 -26 58 -170 153 -389 256 -796 659 -1295
1283 -159 199 -405 520 -405 528 0 3 52 -17 115 -43 144 -61 384 -150 496
-184 216 -66 418 -90 556 -67 251 43 407 236 453 561 32 220 -1 680 -71 1007
-188 884 -699 1369 -1545 1468 -159 19 -543 18 -734 -1z"/>
<path d="M1878 4454 c-52 -28 -72 -98 -44 -152 13 -26 3 -54 -187 -533 -199
-502 -201 -506 -235 -519 -38 -14 -72 -62 -72 -103 0 -33 24 -82 45 -94 12 -7
-4 -141 -109 -901 -121 -882 -123 -893 -148 -915 -110 -93 -5 -258 122 -192
34 17 60 62 60 100 0 30 -24 81 -44 92 -12 7 6 155 109 902 120 874 123 894
148 915 48 40 60 93 32 146 -15 28 -10 42 185 532 l200 503 39 16 38 16 274
-124 c159 -73 284 -136 299 -152 14 -14 34 -31 44 -36 14 -8 31 -74 82 -330
62 -305 64 -322 49 -353 -43 -94 21 -182 122 -168 l44 6 324 -233 c263 -188
325 -236 325 -255 1 -83 94 -136 170 -97 61 31 77 108 36 168 l-25 36 30 518
c30 513 31 518 54 538 107 92 0 255 -125 190 -34 -17 -60 -62 -60 -100 0 -32
24 -81 46 -93 15 -9 15 -46 -10 -478 -32 -577 -32 -576 -56 -572 -10 2 -162
107 -339 233 -260 186 -321 234 -321 253 0 39 -29 81 -68 101 l-37 19 -63 315
-63 316 21 33 c63 103 -43 218 -150 163 -16 -8 -33 -21 -37 -29 -6 -11 -63 11
-269 105 -250 115 -261 121 -273 155 -23 64 -102 92 -163 58z"/>
</g>
</svg>
